<svg id="Layer_1" enable-background="new 0 0 496 496" height="512" viewBox="0 0 496 496" width="512" xmlns="http://www.w3.org/2000/svg"><path d="m346.72 165.356c-16.858-51.783-65.436-87.856-121.22-87.856-77.079 0-134.418 68.038-126.8 138.038-54.679 1.488-98.7 46.431-98.7 101.462 0 55.968 45.532 101.5 101.5 101.5h267c70.304 0 127.5-57.196 127.5-127.5 0-78.591-70.969-139.133-149.28-125.644zm21.78 221.144h-267c-38.322 0-69.5-31.178-69.5-69.5 0-43.289 39.464-76.417 82.483-68.292 11.002 2.081 20.726-7.547 18.707-18.602-1.233-6.748-3.19-19.53-3.19-25.106 0-52.659 42.841-95.5 95.5-95.5 46.046 0 85.535 32.8 93.896 77.991 1.741 9.411 11.334 15.23 20.514 12.358 61.512-19.263 124.09 26.914 124.09 91.151 0 52.659-42.841 95.5-95.5 95.5z"/></svg>